HIERARCHY
ROOT Character1_Hips
{
  OFFSET 0.00187457 15.1741 -0.0195921
  CHANNELS 6 Xposition Yposition Zposition Zrotation Xrotation Yrotation
  JOINT Character1_LeftUpLeg
  {
    OFFSET 1.33984 -0.942852 0
    CHANNELS 6 Xposition Yposition Zposition Zrotation Xrotation Yrotation
    JOINT Character1_LeftLeg
    {
      OFFSET 1.03111 -5.48941 0.514163
      CHANNELS 6 Xposition Yposition Zposition Zrotation Xrotation Yrotation
      JOINT Character1_LeftFoot
      {
        OFFSET 0.584472 -7.37542 -1.61389
        CHANNELS 6 Xposition Yposition Zposition Zrotation Xrotation Yrotation
        JOINT Character1_LeftToeBase
        {
          OFFSET 0.308451 -0.815751 3.43202
          CHANNELS 6 Xposition Yposition Zposition Zrotation Xrotation Yrotation
          End Site
          {
            OFFSET 0 0 0
          }
        }
      }
    }
  }
  JOINT Character1_RightUpLeg
  {
    OFFSET -1.33984 -0.94285 0
    CHANNELS 6 Xposition Yposition Zposition Zrotation Xrotation Yrotation
    JOINT Character1_RightLeg
    {
      OFFSET -1.03111 -5.48942 0.514163
      CHANNELS 6 Xposition Yposition Zposition Zrotation Xrotation Yrotation
      JOINT Character1_RightFoot
      {
        OFFSET -0.584472 -7.37543 -1.61389
        CHANNELS 6 Xposition Yposition Zposition Zrotation Xrotation Yrotation
        JOINT Character1_RightToeBase
        {
          OFFSET -0.308451 -0.815751 3.43202
          CHANNELS 6 Xposition Yposition Zposition Zrotation Xrotation Yrotation
          End Site
          {
            OFFSET 0 0 0
          }
        }
      }
    }
  }
  JOINT Character1_Spine
  {
    OFFSET 0 1.05262 0
    CHANNELS 6 Xposition Yposition Zposition Zrotation Xrotation Yrotation
    JOINT Character1_Spine1
    {
      OFFSET 0 2.01813 0
      CHANNELS 6 Xposition Yposition Zposition Zrotation Xrotation Yrotation
      JOINT Character1_Spine2
      {
        OFFSET 0 2.01813 0
        CHANNELS 6 Xposition Yposition Zposition Zrotation Xrotation Yrotation
        JOINT Character1_LeftShoulder
        {
          OFFSET 1.05262 2.25701 0
          CHANNELS 6 Xposition Yposition Zposition Zrotation Xrotation Yrotation
          JOINT Character1_LeftArm
          {
            OFFSET 1.59242 -0.163555 -0.172858
            CHANNELS 6 Xposition Yposition Zposition Zrotation Xrotation Yrotation
            JOINT Character1_LeftForeArm
            {
              OFFSET 4.24538 -1.87799 -0.325344
              CHANNELS 6 Xposition Yposition Zposition Zrotation Xrotation Yrotation
              JOINT Character1_LeftHand
              {
                OFFSET 2.98616 -1.3058 0.326134
                CHANNELS 6 Xposition Yposition Zposition Zrotation Xrotation Yrotation
                JOINT Character1_LeftHandThumb1
                {
                  OFFSET 0.707167 -0.296377 0.777354
                  CHANNELS 6 Xposition Yposition Zposition Zrotation Xrotation Yrotation
                  JOINT Character1_LeftHandThumb2
                  {
                    OFFSET 0.248522 -0.159515 0.33158
                    CHANNELS 6 Xposition Yposition Zposition Zrotation Xrotation Yrotation
                    JOINT Character1_LeftHandThumb3
                    {
                      OFFSET 0.259194 -0.254061 0.227961
                      CHANNELS 6 Xposition Yposition Zposition Zrotation Xrotation Yrotation
                      JOINT Character1_LeftHandThumb4
                      {
                        OFFSET 0.226666 -0.258213 0.206783
                        CHANNELS 6 Xposition Yposition Zposition Zrotation Xrotation Yrotation
                        End Site
                        {
                          OFFSET 0 0 0
                        }
                      }
                    }
                  }
                }
                JOINT Character1_LeftHandIndex1
                {
                  OFFSET 1.48444 -0.354189 0.611987
                  CHANNELS 6 Xposition Yposition Zposition Zrotation Xrotation Yrotation
                  JOINT Character1_LeftHandIndex2
                  {
                    OFFSET 0.504725 -0.451988 0.0493912
                    CHANNELS 6 Xposition Yposition Zposition Zrotation Xrotation Yrotation
                    JOINT Character1_LeftHandIndex3
                    {
                      OFFSET 0.296442 -0.265512 0.0299125
                      CHANNELS 6 Xposition Yposition Zposition Zrotation Xrotation Yrotation
                      JOINT Character1_LeftHandIndex4
                      {
                        OFFSET 0.197651 -0.217278 0.0208597
                        CHANNELS 6 Xposition Yposition Zposition Zrotation Xrotation Yrotation
                        End Site
                        {
                          OFFSET 0 0 0
                        }
                      }
                    }
                  }
                }
                JOINT Character1_LeftHandMiddle1
                {
                  OFFSET 1.48537 -0.317031 0.212679
                  CHANNELS 6 Xposition Yposition Zposition Zrotation Xrotation Yrotation
                  JOINT Character1_LeftHandMiddle2
                  {
                    OFFSET 0.67206 -0.620936 0.0176344
                    CHANNELS 6 Xposition Yposition Zposition Zrotation Xrotation Yrotation
                    JOINT Character1_LeftHandMiddle3
                    {
                      OFFSET 0.264033 -0.321119 0.0088426
                      CHANNELS 6 Xposition Yposition Zposition Zrotation Xrotation Yrotation
                      JOINT Character1_LeftHandMiddle4
                      {
                        OFFSET 0.180854 -0.241264 0.00658413
                        CHANNELS 6 Xposition Yposition Zposition Zrotation Xrotation Yrotation
                        End Site
                        {
                          OFFSET 0 0 0
                        }
                      }
                    }
                  }
                }
                JOINT Character1_LeftHandRing1
                {
                  OFFSET 1.48599 -0.345215 -0.172738
                  CHANNELS 6 Xposition Yposition Zposition Zrotation Xrotation Yrotation
                  JOINT Character1_LeftHandRing2
                  {
                    OFFSET 0.522196 -0.611354 0.0123876
                    CHANNELS 6 Xposition Yposition Zposition Zrotation Xrotation Yrotation
                    JOINT Character1_LeftHandRing3
                    {
                      OFFSET 0.273492 -0.359549 0.00739122
                      CHANNELS 6 Xposition Yposition Zposition Zrotation Xrotation Yrotation
                      JOINT Character1_LeftHandRing4
                      {
                        OFFSET 0.175075 -0.230164 0.0047313
                        CHANNELS 6 Xposition Yposition Zposition Zrotation Xrotation Yrotation
                        End Site
                        {
                          OFFSET 0 0 0
                        }
                      }
                    }
                  }
                }
                JOINT Character1_LeftHandPinky1
                {
                  OFFSET 1.45006 -0.450851 -0.482264
                  CHANNELS 6 Xposition Yposition Zposition Zrotation Xrotation Yrotation
                  JOINT Character1_LeftHandPinky2
                  {
                    OFFSET 0.289755 -0.353117 -0.0298235
                    CHANNELS 6 Xposition Yposition Zposition Zrotation Xrotation Yrotation
                    JOINT Character1_LeftHandPinky3
                    {
                      OFFSET 0.271225 -0.36969 -0.028032
                      CHANNELS 6 Xposition Yposition Zposition Zrotation Xrotation Yrotation
                      JOINT Character1_LeftHandPinky4
                      {
                        OFFSET 0.192971 -0.263027 -0.019944
                        CHANNELS 6 Xposition Yposition Zposition Zrotation Xrotation Yrotation
                        End Site
                        {
                          OFFSET 0 0 0
                        }
                      }
                    }
                  }
                }
              }
            }
          }
        }
        JOINT Character1_RightShoulder
        {
          OFFSET -1.05263 2.257 0
          CHANNELS 6 Xposition Yposition Zposition Zrotation Xrotation Yrotation
          JOINT Character1_RightArm
          {
            OFFSET -1.59242 -0.163551 -0.172859
            CHANNELS 6 Xposition Yposition Zposition Zrotation Xrotation Yrotation
            JOINT Character1_RightForeArm
            {
              OFFSET -4.24536 -1.87803 -0.325341
              CHANNELS 6 Xposition Yposition Zposition Zrotation Xrotation Yrotation
              JOINT Character1_RightHand
              {
                OFFSET -2.98615 -1.30582 0.326137
                CHANNELS 6 Xposition Yposition Zposition Zrotation Xrotation Yrotation
                JOINT Character1_RightHandThumb1
                {
                  OFFSET -0.707168 -0.296376 0.777353
                  CHANNELS 6 Xposition Yposition Zposition Zrotation Xrotation Yrotation
                  JOINT Character1_RightHandThumb2
                  {
                    OFFSET -0.248522 -0.159517 0.331579
                    CHANNELS 6 Xposition Yposition Zposition Zrotation Xrotation Yrotation
                    JOINT Character1_RightHandThumb3
                    {
                      OFFSET -0.259194 -0.254063 0.227961
                      CHANNELS 6 Xposition Yposition Zposition Zrotation Xrotation Yrotation
                      JOINT Character1_RightHandThumb4
                      {
                        OFFSET -0.226668 -0.258211 0.206782
                        CHANNELS 6 Xposition Yposition Zposition Zrotation Xrotation Yrotation
                        End Site
                        {
                          OFFSET 0 0 0
                        }
                      }
                    }
                  }
                }
                JOINT Character1_RightHandIndex1
                {
                  OFFSET -1.48444 -0.35419 0.611987
                  CHANNELS 6 Xposition Yposition Zposition Zrotation Xrotation Yrotation
                  JOINT Character1_RightHandIndex2
                  {
                    OFFSET -0.504725 -0.451987 0.0493909
                    CHANNELS 6 Xposition Yposition Zposition Zrotation Xrotation Yrotation
                    JOINT Character1_RightHandIndex3
                    {
                      OFFSET -0.296442 -0.265513 0.0299127
                      CHANNELS 6 Xposition Yposition Zposition Zrotation Xrotation Yrotation
                      JOINT Character1_RightHandIndex4
                      {
                        OFFSET -0.197651 -0.21728 0.0208599
                        CHANNELS 6 Xposition Yposition Zposition Zrotation Xrotation Yrotation
                        End Site
                        {
                          OFFSET 0 0 0
                        }
                      }
                    }
                  }
                }
                JOINT Character1_RightHandMiddle1
                {
                  OFFSET -1.48537 -0.31703 0.212679
                  CHANNELS 6 Xposition Yposition Zposition Zrotation Xrotation Yrotation
                  JOINT Character1_RightHandMiddle2
                  {
                    OFFSET -0.67206 -0.620937 0.0176346
                    CHANNELS 6 Xposition Yposition Zposition Zrotation Xrotation Yrotation
                    JOINT Character1_RightHandMiddle3
                    {
                      OFFSET -0.264031 -0.32112 0.00884265
                      CHANNELS 6 Xposition Yposition Zposition Zrotation Xrotation Yrotation
                      JOINT Character1_RightHandMiddle4
                      {
                        OFFSET -0.180854 -0.241265 0.0065841
                        CHANNELS 6 Xposition Yposition Zposition Zrotation Xrotation Yrotation
                        End Site
                        {
                          OFFSET 0 0 0
                        }
                      }
                    }
                  }
                }
                JOINT Character1_RightHandRing1
                {
                  OFFSET -1.48599 -0.345214 -0.172738
                  CHANNELS 6 Xposition Yposition Zposition Zrotation Xrotation Yrotation
                  JOINT Character1_RightHandRing2
                  {
                    OFFSET -0.522198 -0.611355 0.0123873
                    CHANNELS 6 Xposition Yposition Zposition Zrotation Xrotation Yrotation
                    JOINT Character1_RightHandRing3
                    {
                      OFFSET -0.273489 -0.359549 0.00739122
                      CHANNELS 6 Xposition Yposition Zposition Zrotation Xrotation Yrotation
                      JOINT Character1_RightHandRing4
                      {
                        OFFSET -0.175076 -0.230165 0.00473141
                        CHANNELS 6 Xposition Yposition Zposition Zrotation Xrotation Yrotation
                        End Site
                        {
                          OFFSET 0 0 0
                        }
                      }
                    }
                  }
                }
                JOINT Character1_RightHandPinky1
                {
                  OFFSET -1.45006 -0.450851 -0.482263
                  CHANNELS 6 Xposition Yposition Zposition Zrotation Xrotation Yrotation
                  JOINT Character1_RightHandPinky2
                  {
                    OFFSET -0.289758 -0.353119 -0.0298239
                    CHANNELS 6 Xposition Yposition Zposition Zrotation Xrotation Yrotation
                    JOINT Character1_RightHandPinky3
                    {
                      OFFSET -0.271224 -0.36969 -0.0280318
                      CHANNELS 6 Xposition Yposition Zposition Zrotation Xrotation Yrotation
                      JOINT Character1_RightHandPinky4
                      {
                        OFFSET -0.192971 -0.263025 -0.0199442
                        CHANNELS 6 Xposition Yposition Zposition Zrotation Xrotation Yrotation
                        End Site
                        {
                          OFFSET 0 0 0
                        }
                      }
                    }
                  }
                }
              }
            }
          }
        }
        JOINT Character1_Neck
        {
          OFFSET 0 2.01813 0
          CHANNELS 6 Xposition Yposition Zposition Zrotation Xrotation Yrotation
          JOINT Character1_Head
          {
            OFFSET 0 3.0075 0
            CHANNELS 6 Xposition Yposition Zposition Zrotation Xrotation Yrotation
            End Site
            {
              OFFSET 0 0 0
            }
          }
        }
      }
    }
  }
}
MOTION
Frames:	2
Frame Time:	0.0166667
0.00187457 15.1741 -0.0195921 -0.113891 0.0106408 -0.3947 1.33984 -0.942852 -2.07565e-009 -0.122798 5.48778 0.692176 1.03111 -5.48941 0.514163 0.197144 -9.93002 -0.640335 0.584472 -7.37542 -1.61389 -0.0755938 4.4457 0.368841 0.308451 -0.815751 3.43202 3.44393e-015 2.38345e-007 -5.1785e-010 -1.33984 -0.94285 3.0739e-009 0.245827 6.44628 -0.829241 -1.03111 -5.48942 0.514163 0.112822 -11.5962 1.64108 -0.584472 -7.37543 -1.61389 -0.00370389 5.14097 -0.402738 -0.308451 -0.815751 3.43202 1.65707e-014 3.83551e-007 1.40963e-010 1.26392e-008 1.05262 1.79271e-009 -0.336211 0.0383508 -0.011126 1.16193e-008 2.01813 -7.59162e-008 4.17775e-008 -2.23642e-010 -0.811983 2.98361e-009 2.01813 -7.76209e-008 -2.07219e-007 1.51456e-008 -0.811983 1.05262 2.25701 7.49792e-008 -0.557038 -0.0662853 -0.0598303 1.59242 -0.163555 -0.172858 -46.4989 10.1163 -8.09824 4.24538 -1.87799 -0.325344 -2.318 -11.4479 -6.9477 2.98616 -1.3058 0.326134 -1.14468 -0.536319 -1.62881 0.707167 -0.296377 0.777354 -9.10332e-006 1.45262e-006 8.49066e-006 0.248522 -0.159515 0.33158 2.11771e-005 6.98249e-006 3.48133e-006 0.259194 -0.254061 0.227961 1.50005e-005 5.69463e-006 9.832e-007 0.226666 -0.258213 0.206783 -3.74424e-005 -2.04917e-007 -7.99069e-006 1.48444 -0.354189 0.611987 -9.10332e-006 1.45262e-006 8.49066e-006 0.504725 -0.451988 0.0493912 2.11771e-005 6.98249e-006 3.48133e-006 0.296442 -0.265512 0.0299125 1.50005e-005 5.69463e-006 9.832e-007 0.197651 -0.217278 0.0208597 -3.74424e-005 -2.04917e-007 -7.99069e-006 1.48537 -0.317031 0.212679 -9.10332e-006 1.45262e-006 8.49066e-006 0.67206 -0.620936 0.0176344 2.11771e-005 6.98249e-006 3.48133e-006 0.264033 -0.321119 0.0088426 1.50005e-005 5.69463e-006 9.832e-007 0.180854 -0.241264 0.00658413 -3.74424e-005 -2.04917e-007 -7.99069e-006 1.48599 -0.345215 -0.172738 -9.10332e-006 1.45262e-006 8.49066e-006 0.522196 -0.611354 0.0123876 2.11771e-005 6.98249e-006 3.48133e-006 0.273492 -0.359549 0.00739122 1.50005e-005 5.69463e-006 9.832e-007 0.175075 -0.230164 0.0047313 -3.74424e-005 -2.04917e-007 -7.99069e-006 1.45006 -0.450851 -0.482264 -9.10332e-006 1.45262e-006 8.49066e-006 0.289755 -0.353117 -0.0298235 2.11771e-005 6.98249e-006 3.48133e-006 0.271225 -0.36969 -0.028032 1.50005e-005 5.69463e-006 9.832e-007 0.192971 -0.263027 -0.019944 -3.74424e-005 -2.04917e-007 -7.99069e-006 -1.05263 2.257 1.30628e-007 -2.55803e-007 1.6968e-008 -5.54608e-006 -1.59242 -0.163551 -0.172859 55.049 12.5046 8.27713 -4.24536 -1.87803 -0.325341 4.90327 -18.586 2.55202 -2.98615 -1.30582 0.326137 -2.78658 8.7812 -2.9586 -0.707168 -0.296376 0.777353 24.4826 9.18413 26.7956 -0.248522 -0.159517 0.331579 -3.3271 4.30473 -7.27471 -0.259194 -0.254063 0.227961 -6.62958 17.3083 -21.0291 -0.226668 -0.258211 0.206782 2.75437e-005 -2.93812e-006 -1.17465e-005 -1.48444 -0.35419 0.611987 19.0783 -9.26321 9.88544 -0.504725 -0.451987 0.0493909 65.0803 4.57135 0.749694 -0.296442 -0.265513 0.0299127 27.8953 1.66201 1.07975 -0.197651 -0.21728 0.0208599 -4.88649e-005 1.44344e-005 -3.40562e-006 -1.48537 -0.31703 0.212679 27.663 -8.79561 8.85005 -0.67206 -0.620937 0.0176346 66.2222 1.27009 0.399504 -0.264031 -0.32112 0.00884265 20.9658 0.31525 0.317486 -0.180854 -0.241265 0.0065841 3.00002e-005 -3.46978e-005 6.24619e-007 -1.48599 -0.345214 -0.172738 29.7784 -9.00745 8.13827 -0.522198 -0.611355 0.0123873 58.0678 0.833213 0.365867 -0.273489 -0.359549 0.00739122 25.4684 0.298326 0.28008 -0.175076 -0.230165 0.00473141 -1.90275e-005 2.3974e-006 5.41733e-006 -1.45006 -0.450851 -0.482263 27.9626 -7.22403 5.61921 -0.289758 -0.353119 -0.0298239 38.32 -1.89411 -1.3055 -0.271224 -0.36969 -0.0280318 36.3916 -1.88865 -1.19016 -0.192971 -0.263025 -0.0199442 -1.54472e-006 -2.08157e-006 -1.013e-006 -1.2945e-008 2.01813 1.85513e-007 -3.32052e-008 3.86746e-009 1.35594 2.50897e-008 3.0075 -2.73804e-007 -7.77052e-008 1.07615e-009 1.35594 
0.00187889 15.1618 -0.0738306 -0.114179 0.00832185 -0.789412 1.33984 -0.942852 -2.07131e-009 -0.15198 2.93722 0.362379 1.03111 -5.48941 0.514162 0.407624 -6.45219 0.141707 0.584472 -7.37543 -1.61389 -0.151235 3.53959 0.316247 0.308451 -0.815751 3.43202 3.4311e-015 2.38927e-007 -5.16793e-010 -1.33984 -0.94285 3.06782e-009 0.192109 4.8391 -0.617717 -1.03111 -5.48941 0.514162 0.146238 -9.31301 1.76806 -0.584472 -7.37543 -1.61389 -0.033707 4.46972 -0.34276 -0.308451 -0.815752 3.43202 1.6047e-014 3.82598e-007 6.78004e-008 1.25994e-008 1.05262 3.25073e-009 -0.336205 0.0383504 -0.0223646 1.15755e-008 2.01813 -7.59203e-008 4.52213e-008 -4.8169e-010 -1.62396 2.96594e-009 2.01813 -7.76206e-008 -1.92679e-007 1.56642e-008 -1.62397 1.05263 2.25701 7.4967e-008 -0.557038 -0.0662853 -0.0598301 1.59242 -0.163555 -0.172858 -43.7807 9.1394 -11.2599 4.24538 -1.87799 -0.325325 -3.33799 -14.2152 -10.4786 2.98616 -1.3058 0.326133 -2.00823 1.18632 -4.19681 0.707167 -0.296377 0.777354 -8.94786e-006 7.72169e-007 1.02412e-005 0.248522 -0.159515 0.33158 -4.76526e-006 9.20189e-006 3.31844e-006 0.259194 -0.254061 0.227961 1.1766e-005 5.23206e-006 1.35232e-006 0.226666 -0.258213 0.206783 -2.66942e-005 4.1447e-007 -7.87687e-006 1.48444 -0.354189 0.611987 -8.94786e-006 7.72169e-007 1.02412e-005 0.504725 -0.451989 0.049391 -4.76526e-006 9.20189e-006 3.31844e-006 0.296442 -0.265512 0.0299126 1.1766e-005 5.23206e-006 1.35232e-006 0.197651 -0.217278 0.0208596 -2.66942e-005 4.1447e-007 -7.87687e-006 1.48537 -0.317031 0.21268 -8.94786e-006 7.72169e-007 1.02412e-005 0.672059 -0.620936 0.0176342 -4.76526e-006 9.20189e-006 3.31844e-006 0.264033 -0.321119 0.00884247 1.1766e-005 5.23206e-006 1.35232e-006 0.180854 -0.241264 0.00658413 -2.66942e-005 4.1447e-007 -7.87687e-006 1.48599 -0.345214 -0.172738 -8.94786e-006 7.72169e-007 1.02412e-005 0.522197 -0.611355 0.0123868 -4.76526e-006 9.20189e-006 3.31844e-006 0.273491 -0.359549 0.0073912 1.1766e-005 5.23206e-006 1.35232e-006 0.175076 -0.230164 0.00473107 -2.66942e-005 4.1447e-007 -7.87687e-006 1.45006 -0.450851 -0.482263 -8.94786e-006 7.72169e-007 1.02412e-005 0.289756 -0.353117 -0.0298235 -4.76526e-006 9.20189e-006 3.31844e-006 0.271226 -0.36969 -0.0280324 1.1766e-005 5.23206e-006 1.35232e-006 0.192971 -0.263027 -0.019944 -2.66942e-005 4.1447e-007 -7.87687e-006 -1.05263 2.25701 1.30627e-007 -2.5539e-007 1.69284e-008 -5.71958e-006 -1.59242 -0.163551 -0.172859 54.3006 12.3606 10.3917 -4.24537 -1.87802 -0.325331 6.69533 -20.2874 8.89248 -2.98616 -1.3058 0.326134 -2.73607 7.84181 -2.56269 -0.707168 -0.296375 0.777354 24.4826 9.18412 26.7956 -0.248522 -0.159517 0.331579 -3.32707 4.30473 -7.27471 -0.259195 -0.254063 0.227961 -6.62961 17.3083 -21.0291 -0.226667 -0.258211 0.206783 4.1728e-005 -2.9373e-006 -1.19722e-005 -1.48444 -0.35419 0.611987 19.0783 -9.26322 9.88543 -0.504725 -0.451986 0.0493904 65.0803 4.57135 0.749677 -0.296442 -0.265513 0.0299132 27.8953 1.66201 1.07974 -0.197651 -0.217279 0.0208598 -4.89997e-005 1.39829e-005 -3.47272e-006 -1.48537 -0.317029 0.212679 27.663 -8.79561 8.85004 -0.67206 -0.620937 0.0176347 66.2222 1.27008 0.399486 -0.264031 -0.32112 0.00884265 20.9658 0.31525 0.317475 -0.180854 -0.241265 0.00658416 2.99152e-005 -2.04113e-005 6.17385e-007 -1.48599 -0.345215 -0.172738 29.7784 -9.00747 8.13827 -0.522198 -0.611354 0.0123876 58.0678 0.833205 0.365842 -0.273489 -0.359549 0.00739122 25.4684 0.298331 0.280075 -0.175076 -0.230166 0.00473137 -1.90848e-005 -4.11531e-006 5.41214e-006 -1.45006 -0.450851 -0.482263 27.9626 -7.22403 5.6192 -0.289758 -0.353118 -0.0298237 38.32 -1.89411 -1.30551 -0.271225 -0.36969 -0.0280319 36.3916 -1.88865 -1.19017 -0.192971 -0.263025 -0.0199442 -1.52587e-006 6.86084e-007 -1.01086e-006 -1.28993e-008 2.01813 1.85516e-007 9.26722e-008 3.83999e-009 2.71189 2.50004e-008 3.0075 -2.75566e-007 -1.62127e-007 1.06806e-009 2.71189 
